<svg width="24" height="28" viewBox="0 0 24 28" fill="none" xmlns="http://www.w3.org/2000/svg">
    <path fill-rule="evenodd" clip-rule="evenodd" d="M22.2823 7.79646C22.2421 7.34535 21.8721 7.00003 21.4286 7.00003H17.1428V5.25022C17.1428 2.35449 14.8359 5.6e-05 11.9999 5.6e-05C9.16361 5.6e-05 6.85704 2.35449 6.85704 5.25022V7.00003H2.57134C2.12731 7.00003 1.75778 7.34535 1.71761 7.79646L0.003288 27.0466C-0.018 27.2909 0.061536 27.5334 0.224736 27.7148C0.386664 27.8968 0.616008 27.9999 0.857136 27.9999H23.1428C23.3839 27.9999 23.6132 27.8968 23.7756 27.7148C23.9363 27.5334 24.0184 27.2909 23.9966 27.0466L22.2823 7.79646ZM8.57136 5.25022C8.57136 3.31988 10.1099 1.74986 11.9999 1.74986C13.89 1.74986 15.4285 3.31988 15.4285 5.25022V7.00003H8.57136V5.25022ZM1.79669 26.25L3.354 8.75003H6.85704V10.7424C6.34606 11.0459 6 11.6045 6 12.25C6 13.2161 6.76788 14 7.7142 14C8.66052 14 9.42852 13.2161 9.42852 12.25C9.42852 11.6045 9.08246 11.0459 8.57136 10.7424V8.75003H15.4285V10.7424C14.9179 11.0459 14.5714 11.6031 14.5714 12.25C14.5714 13.2161 15.3399 14 16.2857 14C17.2316 14 17.9999 13.2161 17.9999 12.25C17.9999 11.6045 17.6534 11.0459 17.1428 10.7424V8.75003H20.6459L22.2037 26.25H1.79669Z" fill="black"/>
</svg>

